<svg xmlns="http://www.w3.org/2000/svg" width="321.139" height="100" overflow="visible" xml:space="preserve"><circle fill="#1E88E5" cx="50" cy="50" r="50"/><path d="M154.084 64.781h-19.828l-4.148 11.875h-9.246l19.336-51.188h7.98l19.371 51.188h-9.281l-4.184-11.875zm-17.332-7.187h14.836l-7.418-21.262-7.418 21.262zM180.957 42.758c2.789-3.234 6.316-4.852 10.582-4.852 8.109 0 12.223 4.63 12.34 13.889v24.861h-8.543V52.113c0-2.624-.568-4.482-1.705-5.572s-2.807-1.635-5.01-1.635c-3.422 0-5.977 1.524-7.664 4.571v27.179h-8.543v-54h8.543v20.102zM210.9 57.273c0-3.727.738-7.082 2.215-10.07 1.477-2.987 3.551-5.283 6.223-6.889s5.742-2.408 9.211-2.408c5.133 0 9.299 1.652 12.498 4.956 3.199 3.305 4.928 7.687 5.186 13.146l.035 2.004c0 3.75-.721 7.1-2.162 10.053s-3.504 5.236-6.188 6.854-5.783 2.426-9.299 2.426c-5.367 0-9.662-1.787-12.885-5.361-3.223-3.572-4.834-8.336-4.834-14.287v-.424zm8.543.752c0 3.91.809 6.973 2.426 9.186s3.867 3.32 6.75 3.32 5.127-1.125 6.732-3.373 2.408-5.539 2.408-9.871c0-3.84-.826-6.885-2.479-9.133s-3.896-3.373-6.732-3.373c-2.789 0-5.004 1.107-6.645 3.32s-2.46 5.522-2.46 9.924zM267.146 51.117l7.242-12.523h9.492l-11.637 18.75 12.023 19.313h-9.422l-7.594-13.016-7.559 13.016h-9.492l12.023-19.313-11.602-18.75h9.422l7.104 12.523zM312.42 76.656c-.375-.73-.703-1.918-.984-3.566-2.719 2.836-6.047 4.254-9.984 4.254-3.82 0-6.938-1.09-9.352-3.27s-3.621-4.873-3.621-8.084c0-4.055 1.506-7.164 4.518-9.332s7.318-3.252 12.92-3.252h5.238V50.91c0-1.969-.551-3.545-1.652-4.729s-2.777-1.775-5.027-1.775c-1.945 0-3.539.486-4.781 1.459s-1.863 2.209-1.863 3.709h-8.543c0-2.085.691-4.035 2.074-5.852 1.383-1.815 3.264-3.238 5.643-4.27s5.033-1.547 7.963-1.547c4.453 0 8.004 1.12 10.652 3.358s4.008 5.386 4.078 9.44v17.16c0 3.422.48 6.154 1.441 8.193v.598h-8.72zm-9.387-6.187c1.688 0 3.275-.41 4.764-1.229s2.607-1.918 3.357-3.299v-7.16h-4.605c-3.164 0-5.543.549-7.137 1.648s-2.391 2.656-2.391 4.668c0 1.639.545 2.943 1.635 3.914s2.549 1.458 4.377 1.458z"/><path fill="#FFF" d="M82 65c0 2.75-2.25 5-5 5H23c-2.75 0-5-2.25-5-5V35c0-2.75 2.25-5 5-5h54c2.75 0 5 2.25 5 5v30z"/><path fill="#1E88E5" d="M78 64c0 1.1-.9 2-2 2H24c-1.1 0-2-.9-2-2V37c0-1.1.9-2 2-2h52c1.1 0 2 .9 2 2v27z"/><g opacity=".3"><path fill="#FFF" d="m41.141 48.817 1.389-12.89h13.746v3.688H46.08l-.703 6.111c1.184-.678 2.52-1.017 4.008-1.017 2.438 0 4.333.779 5.687 2.338s2.03 3.656 2.03 6.293c0 2.602-.75 4.672-2.25 6.213s-3.557 2.313-6.17 2.313c-2.344 0-4.286-.666-5.827-1.996s-2.376-3.085-2.505-5.265h4.131c.164 1.243.609 2.196 1.336 2.86.727.662 1.676.994 2.848.994 1.313 0 2.335-.47 3.067-1.408s1.099-2.217 1.099-3.836c0-1.561-.404-2.796-1.213-3.705s-1.922-1.364-3.34-1.364c-.773 0-1.43.103-1.969.308-.539.206-1.125.607-1.758 1.206l-3.41-.843zM73.748 35.802v3.531h-.527c-2.391.035-4.301.692-5.73 1.971-1.43 1.279-2.279 3.092-2.549 5.439 1.371-1.44 3.123-2.16 5.256-2.16 2.262 0 4.046.796 5.353 2.389s1.96 3.647 1.96 6.165c0 2.6-.765 4.703-2.294 6.313s-3.536 2.415-6.021 2.415c-2.555 0-4.626-.943-6.214-2.83-1.588-1.886-2.382-4.357-2.382-7.416V50.16c0-4.487 1.093-8.002 3.278-10.544 2.186-2.542 5.329-3.813 9.431-3.813h.439zM69.16 48.021c-.938 0-1.796.264-2.575.791s-1.351 1.23-1.714 2.109v1.301c0 1.898.398 3.406 1.195 4.525s1.828 1.68 3.094 1.68 2.268-.475 3.006-1.424 1.107-2.197 1.107-3.744-.375-2.807-1.125-3.78-1.746-1.458-2.988-1.458z"/></g><circle fill="#1E88E5" cx="72" cy="32.5" r="1.5"/><path fill="#FFF" d="M69.5 28.5h5v1h-5z"/><g fill="#FFF"><path d="M27.745 63.29h-1.182v-5.706l-1.743.597v-1l2.773-1.023h.151v7.132zM34.998 63.29h-4.78v-.816l2.368-2.584c.342-.381.585-.699.73-.955s.217-.512.217-.77c0-.338-.095-.611-.286-.82-.19-.208-.447-.313-.769-.313-.384 0-.682.117-.894.352-.212.234-.317.555-.317.962H30.08c0-.433.099-.823.295-1.17s.479-.616.845-.809.789-.288 1.267-.288c.69 0 1.234.174 1.633.521s.598.826.598 1.438c0 .355-.1.728-.3 1.116-.2.39-.528.832-.984 1.327l-1.738 1.863h3.301v.946zM36.693 57.892c.221 0 .392.063.513.188.12.125.181.282.181.472a.63.63 0 0 1-.181.461c-.121.123-.292.184-.513.184-.212 0-.379-.061-.503-.181a.618.618 0 0 1-.186-.464c0-.189.06-.347.181-.472.121-.126.29-.188.508-.188zm0 4.148c.221 0 .392.063.513.188.12.125.181.282.181.472a.63.63 0 0 1-.181.461c-.121.123-.292.184-.513.184-.212 0-.379-.061-.503-.181a.618.618 0 0 1-.186-.464c0-.189.06-.347.181-.472s.29-.188.508-.188zM39.925 59.196h.723c.364-.003.653-.098.867-.284.213-.186.32-.455.32-.808 0-.34-.089-.604-.266-.791-.178-.188-.449-.281-.813-.281-.319 0-.581.092-.786.275a.926.926 0 0 0-.308.721h-1.187c0-.364.097-.696.291-.996.193-.3.464-.533.811-.701s.735-.252 1.165-.252c.709 0 1.267.179 1.672.536.405.356.608.854.608 1.489 0 .319-.102.62-.305.902a1.92 1.92 0 0 1-.789.639c.391.134.688.344.891.63.203.287.305.629.305 1.026 0 .638-.219 1.146-.657 1.523-.438.378-1.013.566-1.726.566-.684 0-1.244-.182-1.68-.546-.437-.364-.654-.849-.654-1.454h1.187c0 .313.105.566.315.762s.492.293.847.293c.368 0 .657-.098.869-.293.211-.196.317-.479.317-.852 0-.374-.111-.663-.332-.865-.222-.201-.55-.303-.986-.303h-.698v-.936zM48.248 60.759h.884v.953h-.884v1.578h-1.187v-1.578H43.99l-.034-.724 3.066-4.808h1.226v4.579zm-3.047 0h1.86v-2.972l-.088.156-1.772 2.816z"/></g><g><path fill="#FFF" d="M26.625 54.117h-1.912v-.326l.947-1.033c.137-.152.234-.279.292-.382s.087-.204.087-.308a.461.461 0 0 0-.114-.326.395.395 0 0 0-.308-.125c-.154 0-.273.047-.357.141s-.127.222-.127.385h-.475c0-.174.04-.33.118-.469s.191-.247.338-.324.315-.115.507-.115c.276 0 .494.068.653.207s.239.331.239.576a.97.97 0 0 1-.12.445c-.08.156-.211.333-.394.531l-.695.744h1.32v.379zM28.84 52.92c0 .408-.077.717-.229.924-.153.208-.386.313-.698.313-.307 0-.539-.102-.694-.305-.156-.202-.235-.502-.239-.898v-.492c0-.409.077-.716.229-.92.153-.205.386-.307.7-.307.311 0 .543.1.696.299s.231.497.235.895v.491zm-.475-.53c0-.267-.037-.462-.109-.587-.073-.124-.189-.186-.348-.186-.155 0-.269.059-.342.176-.073.118-.111.302-.115.552v.644c0 .266.037.463.111.594.074.13.191.195.35.195a.368.368 0 0 0 .338-.182c.073-.119.111-.309.115-.564v-.642zM31.172 54.117H29.26v-.326l.947-1.033c.137-.152.234-.279.292-.382s.087-.204.087-.308a.461.461 0 0 0-.114-.326.395.395 0 0 0-.308-.125c-.154 0-.273.047-.357.141s-.127.222-.127.385h-.475c0-.174.04-.33.118-.469s.191-.247.338-.324.315-.115.507-.115c.276 0 .494.068.653.207s.239.331.239.576a.97.97 0 0 1-.12.445c-.08.156-.211.333-.394.531l-.695.744h1.32v.379zM32.818 54.117h-.473v-2.285l-.697.238v-.398l1.109-.41h.061v2.855zM37.397 53.647h-1.404v.884h-.383v-.884h-1.82v-.36h.644v-1.056h1.176v-.551h-.916a3.64 3.64 0 0 1-.576.76 2.958 2.958 0 0 0-.324-.24c.368-.316.688-.824.872-1.356l.376.1c-.048.124-.104.256-.156.376h2.316v.36h-1.208v.552h1.116v.349h-1.116v.707h1.404v.359zm-1.787-.36v-.707h-.804v.707h.804zM39.092 54.117h-.473v-2.285l-.697.238v-.398l1.109-.41h.061v2.855zM41.934 52.92c0 .408-.077.717-.229.924-.153.208-.386.313-.698.313-.307 0-.539-.102-.694-.305-.156-.202-.235-.502-.239-.898v-.492c0-.409.077-.716.229-.92.153-.205.386-.307.7-.307.311 0 .543.1.696.299s.231.497.235.895v.491zm-.475-.53c0-.267-.037-.462-.109-.587-.073-.124-.189-.186-.348-.186-.155 0-.269.059-.342.176-.073.118-.111.302-.115.552v.644c0 .266.037.463.111.594.074.13.191.195.35.195a.368.368 0 0 0 .338-.182c.073-.119.111-.309.115-.564v-.642zM45.44 54.027c0 .24-.064.355-.224.416-.168.068-.44.076-.856.076a1.578 1.578 0 0 0-.16-.393c.312.017.632.012.728.008.088 0 .12-.031.12-.115v-.7h-1.816c-.104.448-.304.892-.684 1.216a1.38 1.38 0 0 0-.284-.271c.624-.536.684-1.32.684-1.948V51.06h2.492v2.967zm-.392-1.068v-.592h-1.72c0 .184-.012.385-.036.592h1.756zm-1.719-1.539v.592h1.72v-.592h-1.72zM47.639 54.117h-.473v-2.285l-.697.238v-.398l1.109-.41h.061v2.855zM51.758 51.115v3.355h-.396v-.243h-1.884v.26h-.38v-3.372h2.66zm-2.28.376v.976h1.884v-.976h-1.884zm1.884 2.361v-1.016h-1.884v1.016h1.884zM53.138 52.695c0-.813.336-1.452.792-1.912l.304.144c-.436.456-.736 1.032-.736 1.768s.3 1.313.736 1.768l-.304.145a2.667 2.667 0 0 1-.792-1.913zM56.59 54.088h1.512v.323H54.73v-.323h1.468v-.908h-1.276v-.32h1.276v-.477h-.784v-.207c-.2.144-.408.275-.624.392a1.441 1.441 0 0 0-.232-.3c.68-.336 1.332-.924 1.632-1.416h.38a4.392 4.392 0 0 0 1.712 1.367 2.215 2.215 0 0 0-.24.332 4.938 4.938 0 0 1-.64-.396v.228h-.812v.477h1.304v.32H56.59v.908zm-1.072-.849c.156.212.316.496.372.688l-.324.144c-.048-.192-.2-.492-.352-.712l.304-.12zm1.748-1.184c-.348-.264-.66-.559-.868-.84a4.285 4.285 0 0 1-.828.84h1.696zm-.412 1.892c.136-.188.308-.492.404-.712l.356.132a7.218 7.218 0 0 1-.484.704l-.276-.124zM59.69 52.695c0 .813-.336 1.452-.792 1.912l-.304-.145c.436-.455.736-1.031.736-1.768s-.3-1.313-.736-1.768l.304-.144a2.67 2.67 0 0 1 .792 1.913z"/></g></svg>